<?xml version="1.0" encoding="UTF-8"?>
<svg version="1.1" xmlns="http://www.w3.org/2000/svg" width="128" height="128">
<path d="M0 0 C1.91231483 -0.00269937 3.82462831 -0.00658549 5.73693848 -0.01159668 C9.73117226 -0.01747078 13.72504653 -0.00899642 17.71923828 0.00976562 C22.8165779 0.03255385 27.91307483 0.01941952 33.01038361 -0.00452423 C36.95516203 -0.01903887 40.89974356 -0.01435034 44.8445282 -0.00401306 C46.72303876 -0.00136141 48.60156771 -0.00456002 50.48005676 -0.01393127 C72.48851949 -0.0996537 72.48851949 -0.0996537 81.28125 7.90625 C86.79711864 13.62540618 87.78981691 19.18568207 87.76367188 26.80615234 C87.77214142 27.72076736 87.78061096 28.63538239 87.78933716 29.57771301 C87.81267124 32.59101396 87.81373011 35.60380316 87.8125 38.6171875 C87.81960401 40.71937259 87.82730336 42.82155574 87.83557129 44.92373657 C87.84900807 49.32681672 87.85058855 53.7297176 87.84472656 58.1328125 C87.838833 63.76411366 87.86941214 69.39455193 87.90984344 75.02568626 C87.93574435 79.36669517 87.93859563 83.70749702 87.93495178 88.04857254 C87.93664095 90.12413322 87.94626382 92.19970368 87.96409607 94.27518845 C87.9863316 97.18322563 87.9765602 100.0895253 87.95898438 102.99755859 C87.97224762 103.84769028 87.98551086 104.69782196 87.99917603 105.57371521 C87.89961073 112.69478086 85.26281395 117.38764267 80.46484375 122.5546875 C79.90925781 123.00070313 79.35367188 123.44671875 78.78125 123.90625 C77.94400391 124.59847656 77.94400391 124.59847656 77.08984375 125.3046875 C73.86547259 127.56968201 71.27849692 128.77852056 67.30999756 128.80540466 C66.12007454 128.82036736 66.12007454 128.82036736 64.90611267 128.83563232 C64.04474197 128.836297 63.18337128 128.83696167 62.29589844 128.83764648 C61.38157547 128.84597 60.4672525 128.85429352 59.52522278 128.86286926 C56.50114689 128.8869728 53.47728678 128.89574259 50.453125 128.90234375 C48.34808284 128.91131101 46.24304134 128.92043287 44.13800049 128.92970276 C39.72300671 128.94619712 35.3080888 128.95389348 30.89306641 128.95678711 C25.24605056 128.96216609 19.59975168 128.99982468 13.95293808 129.04553127 C9.60336734 129.07533232 5.25396845 129.08251136 0.9043045 129.08351326 C-1.17684965 129.0877108 -3.25800453 129.10012628 -5.33905792 129.12103081 C-8.25684154 129.14800296 -11.17297408 129.14310177 -14.09082031 129.13061523 C-14.94409409 129.14544952 -15.79736786 129.16028381 -16.67649841 129.17556763 C-23.69829155 129.09035564 -28.41385865 126.64650789 -33.45286942 121.80507565 C-39.51175923 115.46462087 -41.11004957 108.29393864 -41.06030273 99.79541016 C-41.06716599 98.96174423 -41.07402924 98.12807831 -41.08110046 97.26914978 C-41.09927715 94.53602664 -41.09554369 91.80348263 -41.08984375 89.0703125 C-41.09441031 87.15513932 -41.09971729 85.23996778 -41.10572815 83.32479858 C-41.11464164 79.31867805 -41.11225667 75.31275704 -41.10229492 71.30664062 C-41.09081449 66.19357987 -41.11101166 61.0812107 -41.14021206 55.96824074 C-41.15863197 52.01489953 -41.15826996 48.06172224 -41.15257454 44.10834885 C-41.152422 42.22424729 -41.15841051 40.34013415 -41.17086601 38.45607376 C-41.29607691 16.41092255 -41.29607691 16.41092255 -33.53125 7.65625 C-23.83025353 -0.94986848 -12.18878537 -0.0608064 0 0 Z " fill="#000000" transform="translate(40.65625,-0.53125)"/>
<path d="M0 0 C2.73656964 3.50842262 4.54093104 7.08068498 6.5234375 11.05078125 C12.30708944 21.99931015 20.27153218 30.29203185 29 39 C30 40 30 40 30.25 43.4375 C30.1675 44.613125 30.085 45.78875 30 47 C29.01 47.66 28.02 48.32 27 49 C27.350625 49.53625 27.70125 50.0725 28.0625 50.625 C29.41024317 54.03928269 29.18142395 55.48924371 28 59 C25.36934964 61.62321804 22.36949779 63.65295447 19.3125 65.75 C18.02931885 66.66144775 18.02931885 66.66144775 16.72021484 67.59130859 C14.15680834 69.4089098 11.57892261 71.20451554 9 73 C6.96369543 74.44535381 4.93260364 75.89769189 2.90307617 77.35253906 C1.2345586 78.54659557 -0.44107691 79.73068803 -2.1171875 80.9140625 C-4.02319941 82.29320933 -5.88538493 83.73525445 -7.6953125 85.23828125 C-10 87 -10 87 -13 87.5625 C-19.87792635 86.27288881 -24.26433057 77.86571136 -28.1875 72.5625 C-28.84443848 71.67812256 -29.50137695 70.79374512 -30.17822266 69.88256836 C-31.50094562 68.0979755 -32.82129353 66.31161962 -34.13916016 64.5234375 C-35.80818434 62.26011633 -37.48727519 60.00465501 -39.16796875 57.75 C-40.07138034 56.52161796 -40.97380403 55.29250844 -41.875 54.0625 C-42.65617187 53.00160156 -43.43734375 51.94070312 -44.2421875 50.84765625 C-46 48 -46 48 -46.5078125 45.24609375 C-46.67023437 44.50488281 -46.83265625 43.76367188 -47 43 C-48.85912392 41.93994223 -48.85912392 41.93994223 -51 41 C-52.921875 38.79296875 -52.921875 38.79296875 -54.75 36.1875 C-55.36359375 35.33542969 -55.9771875 34.48335937 -56.609375 33.60546875 C-58.17761388 30.66722344 -58.69374066 29.26373447 -58 26 C-54.61840488 22.91483472 -51.17362741 20.95887997 -47.01953125 19.08203125 C-45.86348389 18.55375732 -44.70743652 18.0254834 -43.51635742 17.48120117 C-42.28182496 16.9247751 -41.04720413 16.36854505 -39.8125 15.8125 C-37.28187704 14.66316026 -34.75364696 13.50865991 -32.2265625 12.3515625 C-31.29214577 11.92435158 -31.29214577 11.92435158 -30.33885193 11.48851013 C-24.3163613 8.71815947 -18.40786012 5.72716541 -12.5949707 2.5402832 C-8.237731 0.25165948 -4.91182338 -0.65934575 0 0 Z " fill="#4F90F5" transform="translate(74,25)"/>
<path d="M0 0 C0.495 1.485 0.495 1.485 1 3 C-0.56089026 4.41844009 -2.1237889 5.83467025 -3.6875 7.25 C-4.55761719 8.03890625 -5.42773438 8.8278125 -6.32421875 9.640625 C-8.06673878 11.17709521 -9.85004824 12.66887008 -11.67578125 14.10546875 C-14.19468253 16.02915655 -14.19468253 16.02915655 -16.5 19.0625 C-18.95138267 21.94287464 -20.80522497 23.10206698 -24 25 C-25.59474751 26.29459045 -27.15801678 27.62891827 -28.6875 29 C-29.83798828 30.0209375 -29.83798828 30.0209375 -31.01171875 31.0625 C-33.17372093 33.03440002 -33.17372093 33.03440002 -35 36 C-36.34783459 34.28211261 -37.67779443 32.5501903 -39 30.8125 C-40.11375 29.36810547 -40.11375 29.36810547 -41.25 27.89453125 C-43.11699026 24.80649602 -43.82678304 23.50808639 -43 20 C-39.49679492 16.79835287 -35.85004844 14.78996828 -31.5625 12.80078125 C-30.65866577 12.38000557 -30.65866577 12.38000557 -29.73657227 11.95072937 C-28.47078623 11.3634631 -27.20342144 10.77958873 -25.93457031 10.19897461 C-24.00141823 9.31314987 -22.07474535 8.41426741 -20.1484375 7.51367188 C-18.91182189 6.94192134 -17.67485419 6.37093161 -16.4375 5.80078125 C-15.32246094 5.28684814 -14.20742188 4.77291504 -13.05859375 4.2434082 C-10.32252984 3.13111786 -7.89498177 2.49835221 -5 2 C-3.3207762 1.36562656 -1.64991582 0.70710678 0 0 Z " fill="#1763EE" transform="translate(59,31)"/>
<path d="M0 0 C1.671875 1.5390625 1.671875 1.5390625 2.75 3.625 C3.33394531 4.71748047 3.33394531 4.71748047 3.9296875 5.83203125 C4.45949219 6.90517578 4.45949219 6.90517578 5 8 C5.61875 9.093125 6.2375 10.18625 6.875 11.3125 C8 14 8 14 7 17 C6.41992188 16.37351562 5.83984375 15.74703125 5.2421875 15.1015625 C4.46101563 14.28429688 3.67984375 13.46703125 2.875 12.625 C2.10929687 11.81289063 1.34359375 11.00078125 0.5546875 10.1640625 C-2.28466129 7.7588649 -4.35148046 6.70616507 -8 6 C-9.9654947 6.79979012 -9.9654947 6.79979012 -11.375 8.375 C-12.24125 9.24125 -13.1075 10.1075 -14 11 C-14.66 10.67 -15.32 10.34 -16 10 C-15.67 9.01 -15.34 8.02 -15 7 C-17.64 7.99 -20.28 8.98 -23 10 C-23 9.34 -23 8.68 -23 8 C-20.48743702 6.64870562 -17.96682058 5.31925796 -15.4375 4 C-14.73302734 3.6184375 -14.02855469 3.236875 -13.30273438 2.84375 C-8.74822493 0.49303545 -5.2456796 -0.79499741 0 0 Z " fill="#91D3F8" transform="translate(74,25)"/>
<path d="M0 0 C4.875 1.875 4.875 1.875 6 3 C6.14115161 5.67058851 6.04247107 8.32432238 6 11 C5.01 11.495 5.01 11.495 4 12 C3.01 11.67 2.02 11.34 1 11 C-0.66621616 10.96125079 -2.33394172 10.9549714 -4 11 C-4.33 10.34 -4.66 9.68 -5 9 C-5.99 9.33 -6.98 9.66 -8 10 C-8 7.03 -8 4.06 -8 1 C-6.865625 1.020625 -5.73125 1.04125 -4.5625 1.0625 C-1.18424326 1.41577477 -1.18424326 1.41577477 0 0 Z " fill="#E5EFFD" transform="translate(77,60)"/>
<path d="M0 0 C1.1055189 0.93590504 2.20935453 1.87379858 3.3125 2.8125 C3.92738281 3.33457031 4.54226562 3.85664062 5.17578125 4.39453125 C5.77777344 4.92433594 6.37976563 5.45414063 7 6 C7.84111328 6.73476563 7.84111328 6.73476563 8.69921875 7.484375 C10 9 10 9 10.5 12.4375 C10 16 10 16 7.5 18.4375 C6.2625 19.2109375 6.2625 19.2109375 5 20 C1.4441056 15.70329427 1.80375194 11.91012439 2.08984375 6.62109375 C1.9948367 3.84936625 1.4202284 2.34862673 0 0 Z " fill="#9BCCF1" transform="translate(94,56)"/>
<path d="M0 0 C4.875 1.875 4.875 1.875 6 3 C6.14115161 5.67058851 6.04247107 8.32432238 6 11 C5.01 11.495 5.01 11.495 4 12 C3.01 11.67 2.02 11.34 1 11 C-0.66621616 10.96125079 -2.33394172 10.9549714 -4 11 C-2.68 10.34 -1.36 9.68 0 9 C-0.185625 7.700625 -0.37125 6.40125 -0.5625 5.0625 C-0.87890625 2.84765625 -0.87890625 2.84765625 -1 1 C-0.67 0.67 -0.34 0.34 0 0 Z " fill="#C2DBFB" transform="translate(77,60)"/>
<path d="M0 0 C1.79296875 0.1328125 1.79296875 0.1328125 4 1 C5.73828125 3.6171875 5.73828125 3.6171875 7.3125 6.875 C8.11107422 8.47988281 8.11107422 8.47988281 8.92578125 10.1171875 C10 13 10 13 9 16 C0.59653075 8.80249559 0.59653075 8.80249559 0 3.5 C0 2.345 0 1.19 0 0 Z " fill="#85C8F1" transform="translate(72,26)"/>
<path d="M0 0 C2.31 0 4.62 0 7 0 C7 0.66 7 1.32 7 2 C5.35 2 3.7 2 2 2 C2 2.66 2 3.32 2 4 C3.65 4 5.3 4 7 4 C7 5.65 7 7.3 7 9 C4.36 9 1.72 9 -1 9 C-1 5.72724974 -0.70074844 3.153368 0 0 Z " fill="#E9F1FD" transform="translate(60,61)"/>
<path d="M0 0 C0.78375 0.04125 1.5675 0.0825 2.375 0.125 C2.375 0.785 2.375 1.445 2.375 2.125 C1.385 2.455 0.395 2.785 -0.625 3.125 C-1.35823796 5.14008358 -1.35823796 5.14008358 -1.625 7.125 C-0.305 7.125 1.015 7.125 2.375 7.125 C2.375 7.785 2.375 8.445 2.375 9.125 C0 9.25 0 9.25 -2.625 9.125 C-4.625 7.125 -4.625 7.125 -4.875 4.625 C-4.51649553 1.03995533 -3.59522993 0.17120143 0 0 Z " fill="#F3F7FE" transform="translate(55.625,60.875)"/>
<path d="M0 0 C-0.39803561 2.88575819 -0.79009069 3.82189513 -3.0625 5.75 C-3.701875 6.1625 -4.34125 6.575 -5 7 C-5.33 6.34 -5.66 5.68 -6 5 C-8.64 5.99 -11.28 6.98 -14 8 C-14 7.34 -14 6.68 -14 6 C-12.04414675 4.99515796 -10.08523763 3.99626195 -8.125 3 C-6.48917969 2.1646875 -6.48917969 2.1646875 -4.8203125 1.3125 C-2 0 -2 0 0 0 Z " fill="#5DA5E3" transform="translate(65,27)"/>
<path d="M0 0 C0 2.64 0 5.28 0 8 C0.66 8.33 1.32 8.66 2 9 C1.01 9 0.02 9 -1 9 C-1.33 7.02 -1.66 5.04 -2 3 C-3.65 3 -5.3 3 -7 3 C-7 2.34 -7 1.68 -7 1 C-2.25 0 -2.25 0 0 0 Z " fill="#8EBCFB" transform="translate(69,62)"/>
<path d="M0 0 C0.33 1.65 0.66 3.3 1 5 C-1.31 4.34 -3.62 3.68 -6 3 C-6 2.01 -6 1.02 -6 0 C-3.50907189 -1.24546405 -2.58919267 -0.7767578 0 0 Z " fill="#7DC1EA" transform="translate(71,26)"/>
<path d="M0 0 C0.78375 0.04125 1.5675 0.0825 2.375 0.125 C2.375 0.785 2.375 1.445 2.375 2.125 C1.385 2.455 0.395 2.785 -0.625 3.125 C-1.615 4.61 -1.615 4.61 -2.625 6.125 C-3.285 4.805 -3.945 3.485 -4.625 2.125 C-2.625 0.125 -2.625 0.125 0 0 Z " fill="#DBE8FD" transform="translate(55.625,60.875)"/>
</svg>
